<svg version="1.1"
     viewBox="0 0 100 100"
     xmlns="http://www.w3.org/2000/svg"
     id="graph">


    <line x1="0%" y1="50%" x2="100%" y2="50%" stroke-width="0.5" stroke="black"/>
    <line x1="50%" y1="0%" x2="50%" y2="100%" stroke-width="0.5" stroke="black"/>


    <line x1="90%" y1="48%" x2="90%" y2="52%" stroke-width="0.3" stroke="black"/>
    <line x1="82%" y1="48%" x2="82%" y2="52%" stroke-width="0.3" stroke="black"/>
    <line x1="74%" y1="48%" x2="74%" y2="52%" stroke-width="0.3" stroke="black"/>
    <line x1="66%" y1="48%" x2="66%" y2="52%" stroke-width="0.3" stroke="black"/>
    <line x1="58%" y1="48%" x2="58%" y2="52%" stroke-width="0.3" stroke="black"/>

    <line x1="42%" y1="48%" x2="42%" y2="52%" stroke-width="0.3" stroke="black"/>
    <line x1="34%" y1="48%" x2="34%" y2="52%" stroke-width="0.3" stroke="black"/>
    <line x1="26%" y1="48%" x2="26%" y2="52%" stroke-width="0.3" stroke="black"/>
    <line x1="18%" y1="48%" x2="18%" y2="52%" stroke-width="0.3" stroke="black"/>
    <line x1="10%" y1="48%" x2="10%" y2="52%" stroke-width="0.3" stroke="black"/>


    <line x1="48%" y1="10%" x2="52%" y2="10%" stroke-width="0.3" stroke="black"/>
    <line x1="48%" y1="18%" x2="52%" y2="18%" stroke-width="0.3" stroke="black"/>
    <line x1="48%" y1="26%" x2="52%" y2="26%" stroke-width="0.3" stroke="black"/>
    <line x1="48%" y1="34%" x2="52%" y2="34%" stroke-width="0.3" stroke="black"/>
    <line x1="48%" y1="42%" x2="52%" y2="42%" stroke-width="0.3" stroke="black"/>

    <line x1="48%" y1="58%" x2="52%" y2="58%" stroke-width="0.3" stroke="black"/>
    <line x1="48%" y1="66%" x2="52%" y2="66%" stroke-width="0.3" stroke="black"/>
    <line x1="48%" y1="74%" x2="52%" y2="74%" stroke-width="0.3" stroke="black"/>
    <line x1="48%" y1="82%" x2="52%" y2="82%" stroke-width="0.3" stroke="black"/>
    <line x1="48%" y1="90%" x2="52%" y2="90%" stroke-width="0.3" stroke="black"/>


    <line x1="50%" y1="0%" x2="53%" y2="5%" stroke-width="0.3" stroke="black"/>
    <line x1="50%" y1="0%" x2="47%" y2="5%" stroke-width="0.3" stroke="black"/>

    <line x1="100%" y1="50%" x2="95%" y2="53%" stroke-width="0.3" stroke="black"/>
    <line x1="100%" y1="50%" x2="95%" y2="47%" stroke-width="0.3" stroke="black"/>


    <text x="50%" dy="7%" y="50%" font-size="60%" font-family="monospace">0</text>
    <text x="90%" dy="7%" y="50%" font-size="60%" font-family="monospace">x</text>
    <text x="50%" dx="2%" y="10%" font-size="60%" font-family="monospace">y</text>

    <!--    <circle cx="66%" cy="66%" r="3" fill="yellow"/>-->
</svg>